<svg width="100" height="24" viewBox="0 0 100 24" fill="none" xmlns="http://www.w3.org/2000/svg">
<rect width="100" height="24" fill="#1E1E1E"/>
<g clip-path="url(#clip0_452_4021)">
<rect width="360" height="1987" transform="translate(-130 -19)" fill="white"/>
<g filter="url(#filter0_d_452_4021)">
<rect width="360" height="62" transform="translate(-130 -19)" fill="white"/>
<path d="M0 10.0781C0 5.54337 3.15274 2.34745 7.62271 2.34745C11.2289 2.34745 13.9498 4.37729 14.8135 7.65959H10.7539C10.1276 6.36395 8.98314 5.71612 7.57952 5.71612C5.31214 5.71612 3.75737 7.40046 3.75737 10.0781C3.75737 12.7558 5.31214 14.4401 7.57952 14.4401C8.98314 14.4401 10.1276 13.7923 10.7539 12.4967H14.8135C13.9498 15.779 11.2289 17.7872 7.62271 17.7872C3.15274 17.7872 0 14.6129 0 10.0781Z" fill="#121212"/>
<path d="M17.0748 17.6792V1.69963H20.7674V17.6792H17.0748Z" fill="#121212"/>
<path d="M35.2338 11.6545C35.2338 15.4766 32.4697 17.852 28.9283 17.852C25.3869 17.852 22.7092 15.4766 22.7092 11.6545C22.7092 7.83234 25.4517 5.45699 28.9715 5.45699C32.5129 5.45699 35.2338 7.83234 35.2338 11.6545ZM26.4666 11.6545C26.4666 13.6843 27.5895 14.6561 28.9283 14.6561C30.2456 14.6561 31.4764 13.6843 31.4764 11.6545C31.4764 9.60306 30.2671 8.65292 28.9715 8.65292C27.6327 8.65292 26.4666 9.60306 26.4666 11.6545Z" fill="#121212"/>
<path d="M37.7758 13.49V8.69611H36.3074V5.62975H37.7758V2.69295H41.4684V5.62975H43.8869V8.69611H41.4684V13.5332C41.4684 14.2458 41.7707 14.5481 42.5913 14.5481H43.9085V17.6792H42.0298C39.5249 17.6792 37.7758 16.6211 37.7758 13.49Z" fill="#121212"/>
<path d="M45.9654 17.6792V1.69963H49.658V7.2493C50.3922 6.21279 51.7094 5.50018 53.3721 5.50018C56.1146 5.50018 57.9501 7.40046 57.9501 10.6396V17.6792H54.2791V11.1362C54.2791 9.49509 53.3721 8.58814 51.9685 8.58814C50.5649 8.58814 49.658 9.49509 49.658 11.1362V17.6792H45.9654Z" fill="#121212"/>
<path d="M60.5161 17.6792V5.62975H64.2087V17.6792H60.5161ZM62.3732 4.37729C61.0559 4.37729 60.1706 3.49193 60.1706 2.39064C60.1706 1.26774 61.0559 0.382385 62.3732 0.382385C63.6688 0.382385 64.5542 1.26774 64.5542 2.39064C64.5542 3.49193 63.6688 4.37729 62.3732 4.37729Z" fill="#121212"/>
<path d="M75.1984 17.6792V11.1362C75.1984 9.49509 74.2914 8.58814 72.8878 8.58814C71.4842 8.58814 70.5772 9.49509 70.5772 11.1362V17.6792H66.8846V5.62975H70.5772V7.22771C71.3114 6.21279 72.6071 5.50018 74.2266 5.50018C77.0123 5.50018 78.8694 7.40046 78.8694 10.6396V17.6792H75.1984Z" fill="#121212"/>
<path d="M80.7011 11.6329C80.7011 7.83234 83.0549 5.45699 86.0133 5.45699C87.784 5.45699 89.0796 6.25597 89.7275 7.33568V5.62975H93.4201V17.6576C93.4201 20.8752 91.563 23.6176 87.3953 23.6176C83.8107 23.6176 81.4785 21.8037 81.1546 18.9317H84.804C85.0415 19.8387 85.9485 20.4217 87.2225 20.4217C88.6262 20.4217 89.7275 19.6875 89.7275 17.6576V15.9517C89.058 17.0098 87.784 17.852 86.0133 17.852C83.0549 17.852 80.7011 15.4335 80.7011 11.6329ZM89.7275 11.6545C89.7275 9.73262 88.4966 8.67451 87.093 8.67451C85.711 8.67451 84.4585 9.71103 84.4585 11.6329C84.4585 13.5548 85.711 14.6345 87.093 14.6345C88.4966 14.6345 89.7275 13.5764 89.7275 11.6545Z" fill="#121212"/>
<path d="M100 15.8653C100 16.9666 99.1146 17.852 97.819 17.852C96.5018 17.852 95.6164 16.9666 95.6164 15.8653C95.6164 14.7209 96.5018 13.8355 97.819 13.8355C99.1146 13.8355 100 14.7209 100 15.8653Z" fill="#121212"/>
</g>
</g>
<defs>
<filter id="filter0_d_452_4021" x="-130" y="-19" width="360" height="63" filterUnits="userSpaceOnUse" color-interpolation-filters="sRGB">
<feFlood flood-opacity="0" result="BackgroundImageFix"/>
<feColorMatrix in="SourceAlpha" type="matrix" values="0 0 0 0 0 0 0 0 0 0 0 0 0 0 0 0 0 0 127 0" result="hardAlpha"/>
<feOffset dy="1"/>
<feComposite in2="hardAlpha" operator="out"/>
<feColorMatrix type="matrix" values="0 0 0 0 0.92549 0 0 0 0 0.92549 0 0 0 0 0.92549 0 0 0 1 0"/>
<feBlend mode="normal" in2="BackgroundImageFix" result="effect1_dropShadow_452_4021"/>
<feBlend mode="normal" in="SourceGraphic" in2="effect1_dropShadow_452_4021" result="shape"/>
</filter>
<clipPath id="clip0_452_4021">
<rect width="360" height="1987" fill="white" transform="translate(-130 -19)"/>
</clipPath>
</defs>
</svg>
